<svg xmlns="http://www.w3.org/2000/svg" viewBox="0 0 43.2 44.52"><defs><style>.boxes-cart-1{fill:#797b7c;}.boxes-cart-2{fill:#444248;}.boxes-cart-3{fill:#ced1d7;}.boxes-cart-4{fill:#e5be84;}.boxes-cart-5{fill:#ead1b7;}.boxes-cart-6{fill:#f7eee5;}.boxes-cart-7{fill:#a9afba;}.boxes-cart-8{fill:#64739a;}</style></defs><title>boxes5</title><g id="Слой_2" data-name="Слой 2"><g id="Layer_1" data-name="Layer 1"><path class="boxes-cart-1" d="M7.53,8.73H6.16v-5c0-1-.51-2.21-1.67-2.21H1.86V0H4.49a2.92,2.92,0,0,1,3,2.78Z"/><polygon class="boxes-cart-2" points="8.99 35.92 8.99 4.59 5.48 4.59 5.48 35.92 5.48 39.54 7.65 39.54 40.54 39.54 40.54 35.92 8.99 35.92"/><path class="boxes-cart-2" d="M9.06,40a4.53,4.53,0,1,1-4.53-4.53A4.53,4.53,0,0,1,9.06,40Z"/><path class="boxes-cart-3" d="M6.79,40a2.27,2.27,0,1,1-2.26-2.26A2.27,2.27,0,0,1,6.79,40Z"/><rect class="boxes-cart-4" x="12.85" y="12.12" width="22.78" height="22.45"/><rect class="boxes-cart-5" x="21.18" y="12.12" width="6.11" height="5.78"/><rect class="boxes-cart-5" x="21.18" y="28.79" width="6.11" height="5.78"/><rect class="boxes-cart-6" x="13.94" y="29.97" width="5.91" height="3.57"/><rect class="boxes-cart-2" x="14.21" y="30.47" width="0.63" height="2.57"/><rect class="boxes-cart-2" x="15.22" y="30.47" width="0.22" height="2.57"/><rect class="boxes-cart-2" x="16.34" y="30.47" width="0.51" height="2.57"/><rect class="boxes-cart-2" x="15.69" y="30.47" width="0.31" height="2.57"/><rect class="boxes-cart-2" x="17.24" y="30.47" width="0.21" height="2.57"/><rect class="boxes-cart-2" x="18.24" y="30.47" width="0.42" height="2.57"/><rect class="boxes-cart-2" x="18.81" y="30.47" width="0.21" height="2.57"/><rect class="boxes-cart-2" x="17.76" y="30.47" width="0.29" height="2.57"/><rect class="boxes-cart-2" x="19.25" y="30.47" width="0.31" height="2.57"/><rect class="boxes-cart-7" x="15.78" y="2.61" width="16.92" height="9.51"/><rect class="boxes-cart-5" x="21.97" y="2.61" width="4.54" height="2.15"/><rect class="boxes-cart-6" x="27.29" y="8.7" width="4.39" height="2.65"/><rect class="boxes-cart-2" x="27.49" y="9.07" width="0.47" height="1.91"/><rect class="boxes-cart-2" x="28.24" y="9.07" width="0.16" height="1.91"/><rect class="boxes-cart-2" x="29.08" y="9.07" width="0.38" height="1.91"/><rect class="boxes-cart-2" x="28.59" y="9.07" width="0.23" height="1.91"/><rect class="boxes-cart-2" x="29.74" y="9.07" width="0.16" height="1.91"/><rect class="boxes-cart-2" x="30.49" y="9.07" width="0.32" height="1.91"/><rect class="boxes-cart-2" x="30.91" y="9.07" width="0.16" height="1.91"/><rect class="boxes-cart-2" x="30.13" y="9.07" width="0.22" height="1.91"/><rect class="boxes-cart-2" x="31.24" y="9.07" width="0.23" height="1.91"/><rect class="boxes-cart-8" x="10.25" y="34.57" width="32.94" height="6.36"/></g></g></svg>